<svg xmlns="http://www.w3.org/2000/svg" width="1200" height="630" viewBox="0 0 1200 630">
  <rect width="1200" height="630" fill="#f6f1ea"/>
  <rect x="0" y="0" width="1200" height="14" fill="#b23a2c"/>

  <!-- pig -->
  <g transform="translate(546,66) scale(1.7)">
    <path d="M14 16c-2-6 4-8 8-4l3 3" fill="#f3b6a8"/>
    <path d="M50 16c2-6-4-8-8-4l-3 3" fill="#f3b6a8"/>
    <circle cx="32" cy="35" r="21" fill="#f6c3b6"/>
    <ellipse cx="32" cy="40" rx="11" ry="8.5" fill="#ec9c8b"/>
    <ellipse cx="28" cy="40" rx="1.9" ry="2.6" fill="#b9543f"/>
    <ellipse cx="36" cy="40" rx="1.9" ry="2.6" fill="#b9543f"/>
    <circle cx="24.5" cy="30" r="2.3" fill="#3b2a23"/>
    <circle cx="39.5" cy="30" r="2.3" fill="#3b2a23"/>
  </g>

  <!-- wordmark -->
  <text x="600" y="350" text-anchor="middle" font-family="Georgia, 'Times New Roman', serif" font-weight="700" font-size="104" fill="#a83a25">Save Our Pigs</text>
  <!-- squiggle -->
  <path d="M380 378 C470 366 530 392 600 380 S740 360 820 378" stroke="#f3b6a8" stroke-width="7" fill="none" stroke-linecap="round"/>

  <!-- subline -->
  <text x="600" y="452" text-anchor="middle" font-family="Helvetica, Arial, sans-serif" font-weight="600" font-size="42" fill="#241f1b">Stop the Save Our Bacon Act</text>

  <!-- cta + url -->
  <text x="600" y="528" text-anchor="middle" font-family="Helvetica, Arial, sans-serif" font-size="30" fill="#7a7065">Call your senators in 2 minutes</text>
  <text x="600" y="576" text-anchor="middle" font-family="Helvetica, Arial, sans-serif" font-weight="700" font-size="30" fill="#b23a2c">saveourpigs.com</text>
</svg>
